<?xml version="1.0" encoding="UTF-8"?>
<svg id="Ebene_2" data-name="Ebene 2" xmlns="http://www.w3.org/2000/svg" viewBox="0 0 258.46 258.46">
  <defs>
    <style>
      .cls-1 {
        fill: #f2b705;
      }
    </style>
  </defs>
  <path class="cls-1" d="m16.38,107.12h215.38v116.33c0,9.39-7.62,17.01-17.01,17.01H33.38c-9.39,0-17.01-7.62-17.01-17.01v-116.33h0Z"/>
  <g>
    <polygon class="cls-1" points="147.3 31.76 121.82 37.48 151.07 76.96 176.56 71.25 147.3 31.76"/>
    <path class="cls-1" d="m202.33,65.47l24.27-5.44-6.1-27.25c-2.05-9.17-11.14-14.93-20.3-12.88l-27.12,6.08,29.26,39.49Z"/>
    <path class="cls-1" d="m44.29,54.86l-20.98,4.7c-9.16,2.05-14.92,11.15-12.87,20.31l6.1,27.25,57-12.78-29.26-39.49Z"/>
    <polygon class="cls-1" points="99.14 88.33 98.61 88.73 125.3 82.74 96.05 43.25 70.06 49.08 99.14 88.33"/>
  </g>
</svg>